<?xml version="1.0" ?><svg xmlns="http://www.w3.org/2000/svg" xmlns:xlink="http://www.w3.org/1999/xlink" version="1.1" viewBox="0 0 24 24" style="enable-background:new 0 0 24 24;" xml:space="preserve"><style type="text/css">
	.st0{opacity:0.2;fill:none;stroke:#000000;stroke-width:0.05;stroke-miterlimit:10;}
</style><g id="grid_system"/><g id="_icons"><g><path d="M18.26074,15.94678l-1.29297,1.29297l-0.29297-0.29297c-0.39062-0.39062-1.02344-0.39062-1.41406,0    s-0.39062,1.02344,0,1.41406l1,1c0.19531,0.19531,0.45117,0.29297,0.70703,0.29297s0.51172-0.09766,0.70703-0.29297l2-2    c0.39062-0.39062,0.39062-1.02344,0-1.41406S18.65137,15.55615,18.26074,15.94678z"/><path d="M22.41113,15.02783c-0.00391-0.00928-0.00879-0.01807-0.0127-0.02734c-0.15918-0.30615-0.35645-0.60986-0.57422-0.88184    c-0.00104-0.00153-0.00262-0.00305-0.00366-0.00458C21.93121,13.40039,22,12.70142,22,12    c0-1.45947-0.23535-2.92578-0.7002-4.36084c-0.49023-1.49707-1.83789-2.65283-3.51562-3.01611    C13.99902,3.7959,9.99902,3.79639,6.21777,4.62256C4.53809,4.98633,3.19043,6.14209,2.69922,7.64209    C2.23535,9.07422,2,10.54053,2,12c0,1.45898,0.23535,2.92529,0.7002,4.36084c0.49023,1.49707,1.83789,2.65283,3.51562,3.01611    c1.87891,0.41113,3.79102,0.61816,5.7002,0.61816c0.22736,0,0.45416-0.01215,0.68115-0.01801    c0.07855,0.15485,0.1637,0.3042,0.25439,0.4389c0.10254,0.17969,0.21582,0.33496,0.37695,0.54248    c0.09375,0.10791,0.19043,0.21484,0.25781,0.2793c0.11133,0.12402,0.22266,0.23584,0.33105,0.3335    c0.03711,0.03809,0.11035,0.1123,0.21875,0.18652c0.1748,0.14697,0.36523,0.28271,0.56934,0.40723    C15.46973,22.71143,16.4707,23,17.5,23c1.33789,0,2.61719-0.47998,3.58984-1.33984C22.30371,20.62354,23,19.10742,23,17.5    c0-0.85791-0.20215-1.70996-0.58496-2.46484C22.41406,15.03271,22.41309,15.03027,22.41113,15.02783z M11.91602,17.99512    c-1.76562,0-3.53418-0.19189-5.27441-0.57275c-0.98926-0.21387-1.77051-0.85889-2.04004-1.68066C4.20215,14.50879,4,13.24951,4,12    c0-1.25,0.20215-2.50879,0.60059-3.73877C4.87109,7.43652,5.65234,6.7915,6.64355,6.57715C8.39551,6.19434,10.19727,6,12,6    s3.60449,0.19434,5.3584,0.57764c0.98926,0.21387,1.77051,0.85889,2.04004,1.68066C19.79785,9.49121,20,10.75,20,12    c0,0.19922-0.00488,0.39795-0.01562,0.59717c-0.19531-0.10498-0.40234-0.19385-0.62793-0.26953    c-0.02539-0.01074-0.04883-0.01904-0.08789-0.02832c-0.11023-0.03955-0.20764-0.06042-0.3111-0.08832    C18.97302,12.14087,19,12.07483,19,12c0-0.55225-0.44727-1-1-1h-1c-0.55273,0-1,0.44775-1,1    c0,0.07355,0.02673,0.13831,0.04181,0.20734c-0.38843,0.10638-0.7641,0.2525-1.11621,0.43958C14.9718,12.43805,15,12.2226,15,12    c0-1.6543-1.3457-3-3-3s-3,1.3457-3,3s1.3457,3,3,3c0.22717,0,0.44653-0.03021,0.65942-0.07831    C12.2395,15.70624,12,16.58557,12,17.5c0,0.1571,0.00946,0.30786,0.02289,0.44562c0.00146,0.01508,0.00085,0.03442,0.0025,0.04901    C11.98926,17.99512,11.95312,17.99512,11.91602,17.99512z M12,13c-0.55176,0-1-0.44873-1-1s0.44824-1,1-1s1,0.44873,1,1    S12.55176,13,12,13z M19.77832,20.15088c-1.09473,0.96631-2.83398,1.12744-4.11719,0.31592    c-0.13184-0.08057-0.25684-0.16797-0.37402-0.27051c-0.02637-0.02295-0.05371-0.04443-0.08203-0.06445    c-0.00195-0.00195-0.00586-0.00537-0.01074-0.00977c-0.08301-0.07617-0.15137-0.14404-0.26074-0.26318    c-0.07324-0.07227-0.13672-0.14502-0.15625-0.16357c-0.06543-0.08594-0.13184-0.1709-0.22559-0.32959    c-0.14062-0.2124-0.24512-0.42188-0.30957-0.62158c-0.0166-0.05029-0.03613-0.09912-0.05957-0.146    c-0.08105-0.20947-0.13379-0.44629-0.16016-0.74512C14.00684,17.73535,14,17.61768,14,17.5    c0-0.84961,0.30176-1.65869,0.8584-2.28906c0.09668-0.11279,0.21094-0.22461,0.32031-0.32666    c0.0918-0.08447,0.18945-0.16162,0.32129-0.25c0.79395-0.56543,1.72168-0.80127,2.80566-0.5332    c0.09766,0.01904,0.19336,0.04492,0.19434,0.04199c0.04395,0.021,0.10645,0.04443,0.16309,0.06152    c0.00684,0.00244,0.01465,0.00537,0.02246,0.00781c0.16016,0.05127,0.29785,0.11182,0.4873,0.22217    c0.06934,0.03418,0.13867,0.07617,0.20703,0.11768c0.00098,0.00049,0.00195,0.00098,0.00195,0.00146    c0.0332,0.0249,0.06738,0.04834,0.10352,0.06885c0.07324,0.04297,0.13672,0.10059,0.24512,0.18701    c0.11572,0.08679,0.20856,0.18439,0.31543,0.29163c0.02893,0.03931,0.06616,0.086,0.11621,0.13464    c0.02051,0.03174,0.04297,0.0625,0.06738,0.0918c0.14551,0.17529,0.2832,0.38232,0.3877,0.58301    c0.00391,0.00781,0.00781,0.01562,0.01074,0.02295C20.87109,16.41113,21,16.95264,21,17.5    C21,18.52148,20.55957,19.4834,19.77832,20.15088z"/><path d="M7,11H6c-0.55273,0-1,0.44775-1,1s0.44727,1,1,1h1c0.55273,0,1-0.44775,1-1S7.55273,11,7,11z"/></g></g></svg>